<svg xmlns="http://www.w3.org/2000/svg" width="29" height="30" fill="none" style="">


<g class="currentLayer" style=""><title>Layer 1</title><g filter="url(#filter0_d_1_528)" id="svg_1" class="">
<path d="M13.657038146972653,1.179000000000002 V0.7330000000000041 C13.657038146972653,0.32800000000000296 13.984238146972658,0 14.387838146972655,0 C14.791438146972652,0 15.118538146972654,0.32800000000000296 15.118538146972654,0.7330000000000041 V1.179000000000002 C15.118538146972654,1.5840000000000032 14.791438146972652,1.9120000000000061 14.387838146972655,1.9120000000000061 C13.984238146972658,1.9120000000000061 13.657038146972653,1.5840000000000032 13.657038146972653,1.179000000000002 zM6.590238146972652,3.469999999999999 C6.725638146972656,3.706000000000003 6.971238146972652,3.8370000000000033 7.223938146972657,3.8370000000000033 C7.347838146972663,3.8370000000000033 7.473438146972654,3.8059999999999974 7.588438146972663,3.7390000000000043 C7.938038146972659,3.537000000000006 8.05793814697266,3.0889999999999986 7.856238146972657,2.7379999999999995 L7.634038146972657,2.352000000000004 C7.432238146972651,2.0010000000000048 6.985338146972651,1.8810000000000002 6.635938146972663,2.0829999999999984 C6.286338146972653,2.2849999999999966 6.166438146972652,2.733000000000004 6.368038146972651,3.084000000000003 L6.590238146972652,3.469999999999999 zM21.18693814697265,3.7390000000000043 C21.30193814697266,3.8059999999999974 21.42753814697265,3.8370000000000033 21.55153814697266,3.8370000000000033 C21.80403814697266,3.8370000000000033 22.049738146972658,3.706000000000003 22.185138146972662,3.4710000000000036 L22.407438146972652,3.084000000000003 C22.609238146972658,2.7339999999999947 22.48943814697266,2.2860000000000014 22.139938146972653,2.0829999999999984 C21.79053814697265,1.8810000000000002 21.34363814697265,2.0010000000000048 21.141738146972656,2.352000000000004 L20.919338146972663,2.7379999999999995 C20.71763814697266,3.087999999999994 20.837338146972655,3.537000000000006 21.18693814697265,3.7390000000000043 zM26.798038146972658,9.096999999999994 C26.922038146972653,9.096999999999994 27.047038146972653,9.066000000000003 27.162038146972662,8.998999999999995 L27.548038146972658,8.775999999999996 C27.897038146972662,8.573999999999998 28.017038146972652,8.125 27.815038146972654,7.775000000000006 C27.613038146972656,7.424000000000007 27.166038146972653,7.304000000000002 26.81703814697265,7.507000000000005 L26.43203814697266,7.730000000000004 C26.08203814697265,7.932000000000002 25.96243814697266,8.379999999999995 26.164038146972658,8.730999999999995 C26.300038146972653,8.965999999999994 26.545038146972658,9.096999999999994 26.798038146972658,9.096999999999994 zM28.69703814697266,22.095 C27.74803814697266,23.980999999999995 25.096738146972655,25.24799999999999 22.098938146972657,25.24799999999999 C20.04393814697265,25.24799999999999 18.118938146972653,24.653999999999996 16.81023814697265,23.635999999999996 C16.06053814697266,24.15100000000001 15.269038146972662,24.483000000000004 14.484938146972652,24.584000000000003 C14.449238146972661,24.589 14.413338146972663,24.591000000000008 14.378838146972654,24.590000000000003 C14.349538146972662,24.590000000000003 14.320138146972653,24.587999999999994 14.290738146972657,24.584000000000003 C13.506538146972659,24.483000000000004 12.71503814697266,24.15100000000001 11.965438146972659,23.635999999999996 C10.656738146972657,24.653999999999996 8.731838146972663,25.24799999999999 6.67663814697265,25.24799999999999 C3.678938146972655,25.24799999999999 1.027338146972653,23.980999999999995 0.07833814697265495,22.095 C-0.026061853027343318,21.887 -0.026161853027346638,21.641999999999996 0.07833814697265495,21.435000000000002 C0.7785381469726502,20.043000000000006 2.3795381469726493,18.986999999999995 4.405638146972663,18.53 C3.354338146972651,17.03200000000001 2.970438146972654,15.263000000000005 3.4465381469726566,13.748999999999995 C3.5048381469726593,13.563999999999993 3.63413814697266,13.408999999999992 3.805838146972661,13.319999999999993 C5.006538146972659,12.692000000000007 6.529338146972663,12.646999999999991 8.011638146972658,13.168000000000006 C8.23173814697266,12.437000000000012 8.577938146972656,11.799999999999997 9.04723814697266,11.305000000000007 C9.207738146972659,11.135000000000005 9.439538146972652,11.052000000000007 9.670738146972653,11.081999999999994 C10.054038146972658,11.132000000000005 10.43893814697266,11.236000000000004 10.82003814697265,11.391000000000005 C11.593238146972652,9.751999999999995 12.732838146972654,8.530000000000001 14.082838146972662,7.908000000000001 C14.27623814697266,7.819000000000003 14.498838146972659,7.819000000000003 14.69233814697266,7.908000000000001 C16.041938146972655,8.528999999999996 17.181138146972657,9.751000000000005 17.954538146972652,11.388000000000005 C18.335638146972656,11.236000000000004 18.720938146972657,11.132000000000005 19.104938146972657,11.081999999999994 C19.33633814697265,11.052000000000007 19.56793814697265,11.135000000000005 19.72843814697265,11.305000000000007 C20.197738146972654,11.799999999999997 20.54383814697266,12.437000000000012 20.763938146972663,13.168000000000006 C22.24643814697265,12.646999999999991 23.76903814697266,12.692000000000007 24.969638146972656,13.318999999999988 C25.141338146972657,13.408999999999992 25.270638146972658,13.563999999999993 25.32893814697266,13.748999999999995 C25.805238146972655,15.263000000000005 25.42133814697266,17.03200000000001 24.369938146972657,18.53 C26.396038146972657,18.986999999999995 27.997038146972656,20.043000000000006 28.69703814697266,21.435000000000002 C28.802038146972663,21.641999999999996 28.802038146972663,21.887 28.69703814697266,22.095 zM19.849338146972656,20.01599999999999 C20.64283814697265,19.818000000000012 21.431138146972657,19.411 22.12553814697266,18.826999999999998 C23.54383814697266,17.63300000000001 24.286638146972663,15.895999999999987 24.011538146972654,14.491000000000014 C23.15313814697265,14.15700000000001 22.082538146972652,14.209000000000003 21.02753814697266,14.63300000000001 C21.128838146972654,16.00200000000001 20.88283814697266,17.55000000000001 20.275038146972662,19.073000000000008 C20.14583814697265,19.39699999999999 20.003338146972652,19.71199999999999 19.849338146972656,20.01599999999999 zM12.101438146972654,12.10499999999999 C12.94333814697265,12.705999999999989 13.728538146972653,13.538000000000011 14.386238146972659,14.532999999999987 C15.047338146972663,13.526999999999987 15.831738146972654,12.695999999999998 16.67153814697265,12.09899999999999 C16.108738146972655,10.879000000000005 15.303138146972657,9.924999999999997 14.387738146972652,9.397999999999996 C13.470838146972653,9.926000000000002 12.66423814697265,10.882000000000005 12.101438146972654,12.10499999999999 zM6.649838146972655,18.826999999999998 C7.344138146972654,19.411 8.132738146972656,19.818000000000012 8.926438146972657,20.01599999999999 C8.772238146972654,19.71199999999999 8.629938146972663,19.39699999999999 8.500638146972662,19.073000000000008 C7.89283814697265,17.55000000000001 7.646838146972655,16.00200000000001 7.74813814697265,14.63300000000001 C6.693038146972654,14.209000000000003 5.622438146972655,14.15700000000001 4.763938146972663,14.491000000000014 C4.488838146972654,15.895999999999987 5.2316381469726565,17.63300000000001 6.649838146972655,18.826999999999998 zM10.81093814697266,22.663999999999987 C10.496238146972658,22.34700000000001 10.195738146972658,21.99600000000001 9.913938146972654,21.61699999999999 C8.465838146972658,21.59299999999999 6.955138146972658,20.997000000000014 5.71033814697266,19.94999999999999 C5.6580381469726575,19.906000000000006 5.606538146972653,19.86099999999999 5.555738146972658,19.816000000000003 C3.77583814697266,20.037000000000006 2.2841381469726514,20.772999999999996 1.5823381469726598,21.764999999999986 C2.43563814697265,22.96799999999999 4.452938146972656,23.782999999999987 6.676538146972661,23.782999999999987 C8.255138146972655,23.782999999999987 9.765038146972657,23.36500000000001 10.81093814697266,22.663999999999987 zM14.103838146972663,17.138000000000005 C13.375538146972659,15.312999999999988 12.157938146972654,13.807999999999993 10.87813814697266,13.048000000000002 C10.842438146972654,13.031000000000006 10.808638146972655,13.010999999999996 10.77683814697265,12.990000000000009 C10.47403814697266,12.818999999999988 10.16853814697265,12.692000000000007 9.86543814697265,12.611999999999995 C9.562538146972656,13.045999999999992 9.35973814697266,13.602000000000004 9.25883814697265,14.235000000000014 C9.256238146972663,14.274000000000001 9.250538146972659,14.312000000000012 9.241638146972662,14.349999999999994 C9.07303814697265,15.573000000000008 9.27423814697265,17.067000000000007 9.857338146972651,18.528999999999996 C10.44593814697265,20.00399999999999 11.353938146972652,21.27000000000001 12.356238146972657,22.102000000000004 C12.379638146972653,22.119 12.40223814697265,22.138000000000005 12.42393814697266,22.157999999999987 C12.967038146972655,22.596000000000004 13.536038146972658,22.90700000000001 14.09563814697266,23.055000000000007 C14.99383814697265,21.768 15.011738146972661,19.413999999999987 14.103838146972663,17.138000000000005 zM18.91813814697265,18.52799999999999 C19.50103814697266,17.067000000000007 19.70223814697266,15.574000000000012 19.534038146972662,14.352000000000004 C19.524838146972655,14.312000000000012 19.51903814697266,14.272999999999996 19.51643814697266,14.233000000000004 C19.41553814697265,13.600999999999999 19.21263814697265,13.044999999999987 18.90993814697265,12.61099999999999 C18.61143814697266,12.689999999999998 18.31003814697266,12.814999999999998 18.010738146972656,12.980999999999995 C17.971238146972652,13.009999999999991 17.928138146972657,13.033999999999992 17.88213814697265,13.055000000000007 C16.88813814697265,13.647999999999996 15.928738146972663,14.691000000000003 15.206538146972662,16.004999999999995 C15.296038146972663,16.197000000000003 15.38083814697265,16.394000000000005 15.460638146972656,16.593999999999994 C16.28923814697265,18.670999999999992 16.445538146972652,20.79400000000001 15.965738146972654,22.444999999999993 C16.096138146972663,22.355999999999995 16.225638146972656,22.258999999999986 16.353638146972656,22.156000000000006 C16.373938146972662,22.137 16.395038146972652,22.120000000000005 16.41683814697265,22.104000000000013 C17.420038146972658,21.27199999999999 18.329138146972653,20.004999999999995 18.91813814697265,18.52799999999999 zM27.193038146972654,21.764999999999986 C26.491038146972656,20.772999999999996 24.999538146972654,20.037000000000006 23.219538146972653,19.816000000000003 C23.16883814697266,19.86099999999999 23.117238146972653,19.906000000000006 23.06493814697265,19.94999999999999 C21.820138146972653,20.997000000000014 20.309538146972656,21.592000000000013 18.861538146972663,21.61699999999999 C18.579838146972662,21.99600000000001 18.27923814697266,22.34700000000001 17.964538146972657,22.663999999999987 C19.01053814697265,23.36500000000001 20.520538146972655,23.782999999999987 22.098938146972657,23.782999999999987 C24.322438146972658,23.782999999999987 26.34003814697266,22.96799999999999 27.193038146972654,21.764999999999986 zM21.471738146972655,27.185000000000002 C21.167438146972657,26.91900000000001 20.705838146972653,26.950999999999993 20.440738146972663,27.256 C19.979938146972657,27.787000000000006 17.797338146972663,28.533999999999992 14.387838146972655,28.533999999999992 C10.978238146972657,28.533999999999992 8.79553814697266,27.787000000000006 8.334838146972658,27.256 C8.069738146972654,26.950999999999993 7.6081381469726495,26.91900000000001 7.303838146972652,27.185000000000002 C6.999538146972654,27.450999999999993 6.967638146972661,27.913999999999987 7.23273814697265,28.218999999999994 C8.37443814697265,29.533999999999992 11.80063814697266,30 14.387938146972658,30 C16.97503814697265,30 20.40123814697266,29.533999999999992 21.54293814697266,28.218999999999994 C21.807838146972657,27.913999999999987 21.776038146972652,27.450999999999993 21.471738146972655,27.185000000000002 zM4.78153814697265,11.677999999999997 C5.169738146972662,11.787999999999997 5.573538146972652,11.561000000000007 5.683038146972663,11.171999999999997 C6.775438146972661,7.283000000000001 10.354938146972657,4.566999999999993 14.387838146972655,4.566999999999993 C18.420738146972653,4.566999999999993 22.000238146972663,7.283000000000001 23.09263814697266,11.171999999999997 C23.18333814697266,11.495000000000005 23.476538146972658,11.706000000000003 23.79553814697266,11.706000000000003 C23.86113814697265,11.706000000000003 23.92793814697265,11.697000000000003 23.99413814697266,11.677999999999997 C24.382638146972653,11.567999999999998 24.608738146972655,11.164000000000001 24.499238146972658,10.774000000000001 C23.230238146972653,6.257000000000005 19.07223814697265,3.102000000000004 14.387838146972655,3.102000000000004 C9.703338146972655,3.102000000000004 5.545338146972654,6.257000000000005 4.2763381469726625,10.774000000000001 C4.1669381469726545,11.164000000000001 4.393038146972657,11.567999999999998 4.78153814697265,11.677999999999997 zM14.387838146972655,27.537000000000006 C15.015638146972663,27.537000000000006 17.122238146972663,27.47 17.872038146972656,26.605999999999995 C18.137038146972657,26.300999999999988 18.10513814697265,25.837999999999994 17.800738146972662,25.572000000000003 C17.497938146972658,25.306999999999988 17.039438146972657,25.337999999999994 16.773938146972654,25.63900000000001 C16.607238146972662,25.790999999999997 15.742238146972653,26.070999999999998 14.387838146972655,26.070999999999998 C13.033038146972658,26.070999999999998 12.16793814697266,25.790999999999997 12.00143814697266,25.63900000000001 C11.73573814697265,25.337999999999994 11.277438146972656,25.306999999999988 10.974638146972651,25.572000000000003 C10.67023814697265,25.837999999999994 10.63843814697266,26.300999999999988 10.90353814697265,26.605999999999995 C11.65353814697265,27.47 13.76013814697265,27.537000000000006 14.387838146972655,27.537000000000006 zM1.2278381469726583,8.775999999999996 L1.61273814697266,8.998999999999995 C1.7279381469726616,9.066000000000003 1.8536381469726564,9.096999999999994 1.977738146972655,9.096999999999994 C2.2301381469726493,9.096999999999994 2.4757381469726596,8.965999999999994 2.6111381469726496,8.730999999999995 C2.8130381469726586,8.381 2.693438146972653,7.932000000000002 2.3440381469726503,7.730000000000004 L1.9590381469726594,7.507000000000005 C1.6098381469726633,7.304000000000002 1.1626381469726539,7.424000000000007 0.9608381469726623,7.775000000000006 C0.75883814697265,8.125 0.8784381469726554,8.572999999999993 1.2278381469726583,8.775999999999996 z" fill="white" id="svg_2"/>
</g></g></svg>