<svg xmlns="http://www.w3.org/2000/svg" width="19.0" height="20.0" fill="none" style="">

<g class="currentLayer" style=""><title>Layer 1</title><g opacity="0.5" filter="url(#filter0_d_1_197)" id="svg_1" class="">
<path d="M9.104699999999994,0.7860000000000014 V0.4890000000000043 C9.104699999999994,0.2189999999999941 9.3228,0 9.591800000000006,0 C9.8609,0 10.078999999999994,0.2189999999999941 10.078999999999994,0.4890000000000043 V0.7860000000000014 C10.078999999999994,1.0559999999999974 9.8609,1.2750000000000057 9.591800000000006,1.2750000000000057 C9.3228,1.2750000000000057 9.104699999999994,1.0559999999999974 9.104699999999994,0.7860000000000014 zM4.393500000000003,2.313999999999993 C4.483699999999999,2.469999999999999 4.647499999999994,2.558000000000007 4.815899999999999,2.558000000000007 C4.8984999999999985,2.558000000000007 4.982299999999995,2.537000000000006 5.058899999999994,2.492999999999995 C5.292000000000002,2.358000000000004 5.371899999999997,2.0589999999999975 5.237499999999997,1.8250000000000028 L5.089299999999994,1.5679999999999978 C4.954800000000006,1.3340000000000032 4.656800000000004,1.2540000000000049 4.423900000000003,1.3889999999999958 C4.190799999999996,1.524000000000001 4.110900000000001,1.8220000000000027 4.2453,2.0559999999999974 L4.393500000000003,2.313999999999993 zM14.124600000000001,2.492999999999995 C14.201300000000003,2.537000000000006 14.284999999999997,2.558000000000007 14.3677,2.558000000000007 C14.536000000000001,2.558000000000007 14.699799999999996,2.4710000000000036 14.790000000000006,2.313999999999993 L14.938299999999998,2.0559999999999974 C15.0728,1.8229999999999933 14.992999999999995,1.524000000000001 14.759900000000002,1.3889999999999958 C14.527000000000001,1.2540000000000049 14.229,1.3340000000000032 14.094499999999996,1.5679999999999978 L13.946200000000005,1.8250000000000028 C13.811700000000002,2.0589999999999975 13.891499999999994,2.358000000000004 14.124600000000001,2.492999999999995 zM17.865099999999998,6.064999999999998 C17.9478,6.064999999999998 18.031599999999997,6.043999999999997 18.1083,5.998999999999995 L18.365099999999998,5.850999999999999 C18.598100000000002,5.715999999999994 18.677899999999994,5.417000000000002 18.543300000000002,5.183000000000007 C18.4088,4.950000000000003 18.1109,4.869 17.877799999999993,5.004000000000005 L17.620999999999995,5.153000000000006 C17.388099999999994,5.287999999999997 17.308300000000003,5.587000000000003 17.442800000000005,5.820999999999998 C17.533,5.977000000000004 17.696700000000007,6.064999999999998 17.865099999999998,6.064999999999998 zM19.131500000000003,14.72999999999999 C18.498900000000006,15.986999999999995 16.731099999999998,16.831999999999994 14.732600000000005,16.831999999999994 C13.3626,16.831999999999994 12.0792,16.436000000000007 11.206800000000001,15.757000000000005 C10.706999999999994,16.101 10.179400000000001,16.322000000000003 9.656599999999997,16.389999999999986 C9.632800000000003,16.393 9.608900000000006,16.394000000000005 9.585800000000006,16.394000000000005 C9.566400000000002,16.393 9.546800000000005,16.391999999999996 9.527199999999993,16.389999999999986 C9.0043,16.322000000000003 8.476699999999994,16.101 7.9769000000000005,15.757000000000005 C7.104399999999998,16.436000000000007 5.821200000000005,16.831999999999994 4.451099999999997,16.831999999999994 C2.452600000000004,16.831999999999994 0.6847999999999956,15.986999999999995 0.052199999999999136,14.72999999999999 C-0.017399999999994975,14.592000000000013 -0.017399999999994975,14.427999999999997 0.052199999999999136,14.289999999999992 C0.5190000000000055,13.361999999999995 1.5863999999999976,12.657999999999987 2.9369999999999976,12.353000000000009 C2.2361999999999966,11.355000000000004 1.9802999999999997,10.174999999999997 2.297700000000006,9.165999999999997 C2.336500000000001,9.043000000000006 2.422700000000006,8.939999999999998 2.5371999999999986,8.879999999999995 C3.337699999999998,8.460999999999999 4.352800000000002,8.430999999999997 5.341099999999997,8.778999999999996 C5.487800000000007,8.290999999999997 5.718599999999995,7.867000000000004 6.031400000000005,7.536000000000001 C6.138499999999993,7.423000000000002 6.293000000000006,7.367999999999995 6.447100000000006,7.388000000000005 C6.702600000000004,7.4210000000000065 6.959299999999999,7.491 7.213400000000007,7.593999999999994 C7.728800000000007,6.501000000000005 8.488500000000002,5.686000000000007 9.388499999999993,5.272000000000006 C9.517499999999998,5.212999999999994 9.665899999999993,5.212999999999994 9.794899999999998,5.272000000000006 C10.694599999999994,5.686000000000007 11.454099999999997,6.5 11.9696,7.591999999999999 C12.223699999999994,7.489999999999995 12.480599999999995,7.4210000000000065 12.736599999999996,7.388000000000005 C12.890900000000002,7.367999999999995 13.045199999999994,7.423000000000002 13.152199999999993,7.536000000000001 C13.465100000000007,7.867000000000004 13.695899999999995,8.290999999999997 13.842600000000004,8.778000000000006 C14.8309,8.430999999999997 15.846000000000004,8.462000000000003 16.6464,8.879999999999995 C16.760900000000007,8.938999999999993 16.847099999999998,9.042000000000002 16.885900000000007,9.165999999999997 C17.203400000000002,10.174999999999997 16.947500000000005,11.355000000000004 16.2466,12.353000000000009 C17.597300000000004,12.657999999999987 18.664699999999996,13.361999999999995 19.131500000000003,14.289999999999992 C19.201099999999997,14.427999999999997 19.201099999999997,14.592000000000013 19.131500000000003,14.72999999999999 zM13.232799999999997,13.343999999999994 C13.761899999999997,13.211999999999989 14.287400000000005,12.941000000000003 14.750299999999996,12.550999999999988 C15.695800000000006,11.756 16.191100000000006,10.596999999999994 16.0077,9.661000000000001 C15.435400000000001,9.438000000000002 14.721699999999998,9.472999999999999 14.018299999999996,9.756 C14.085899999999995,10.668000000000006 13.921899999999994,11.700000000000003 13.516599999999997,12.715000000000003 C13.430499999999995,12.931000000000012 13.335499999999996,13.140999999999991 13.232799999999997,13.343999999999994 zM8.067599999999999,8.069999999999993 C8.628799999999998,8.469999999999999 9.152299999999997,9.025000000000006 9.590800000000002,9.689000000000007 C10.031499999999994,9.018 10.554500000000004,8.463999999999999 11.1143,8.066000000000003 C10.739099999999993,7.253 10.201999999999998,6.617000000000004 9.591800000000006,6.266000000000005 C8.980599999999995,6.617999999999995 8.442800000000005,7.2549999999999955 8.067599999999999,8.069999999999993 zM4.433199999999999,12.550999999999988 C4.896100000000004,12.941000000000003 5.421800000000005,13.211999999999989 5.950900000000004,13.343999999999994 C5.848200000000006,13.140999999999991 5.753299999999996,12.931000000000012 5.667000000000002,12.715000000000003 C5.261899999999997,11.700000000000003 5.097899999999996,10.668000000000006 5.165400000000005,9.756 C4.462000000000003,9.471999999999994 3.7483000000000004,9.438000000000002 3.1758999999999986,9.661000000000001 C2.992500000000007,10.596999999999994 3.487800000000007,11.756 4.433199999999999,12.550999999999988 zM7.207300000000004,15.109000000000009 C6.997500000000002,14.897999999999996 6.7971,14.663999999999987 6.609300000000005,14.412000000000006 C5.643900000000002,14.39500000000001 4.636799999999994,13.99799999999999 3.806899999999999,13.300000000000011 C3.7720000000000056,13.27000000000001 3.737700000000004,13.241000000000014 3.703800000000001,13.211000000000013 C2.5172000000000025,13.358000000000004 1.5228000000000037,13.84899999999999 1.0549000000000035,14.509999999999991 C1.6236999999999995,15.312000000000012 2.968599999999995,15.85499999999999 4.450999999999993,15.85499999999999 C5.503399999999999,15.85499999999999 6.510000000000005,15.576999999999998 7.207300000000004,15.109000000000009 zM9.402500000000003,11.426000000000002 C8.917000000000002,10.209000000000003 8.1053,9.204999999999998 7.252099999999999,8.698999999999998 C7.228200000000001,8.686999999999998 7.205699999999993,8.674000000000007 7.184600000000003,8.659999999999997 C6.982699999999994,8.546000000000006 6.778999999999996,8.460999999999999 6.576999999999998,8.408000000000001 C6.375,8.697000000000003 6.2398000000000025,9.067999999999998 6.172499999999999,9.489999999999995 C6.1708,9.516000000000005 6.167000000000002,9.540999999999997 6.161100000000005,9.566999999999993 C6.048699999999997,10.382000000000005 6.1828,11.378 6.5715,12.352000000000004 C6.963899999999995,13.336000000000013 7.569299999999998,14.180000000000007 8.237499999999997,14.735000000000014 C8.253100000000003,14.74600000000001 8.268100000000004,14.75800000000001 8.282600000000002,14.771999999999991 C8.644599999999997,15.063999999999993 9.024000000000001,15.271999999999991 9.397099999999995,15.370000000000005 C9.995900000000006,14.512 10.007800000000003,12.943000000000012 9.402500000000003,11.426000000000002 zM12.611999999999995,12.352000000000004 C13.000699999999995,11.378 13.134799999999998,10.382999999999996 13.0227,9.567999999999998 C13.016499999999994,9.542000000000002 13.012600000000006,9.515 13.010900000000007,9.489000000000004 C12.943600000000004,9.066999999999993 12.808400000000006,8.697000000000003 12.6066,8.408000000000001 C12.407600000000002,8.459999999999994 12.206699999999998,8.543000000000006 12.007099999999994,8.653999999999996 C11.980800000000002,8.673000000000002 11.952100000000002,8.689999999999998 11.921400000000006,8.703000000000003 C11.258700000000005,9.097999999999999 10.619200000000006,9.793999999999997 10.137699999999995,10.670000000000002 C10.197299999999998,10.798000000000002 10.253799999999998,10.929000000000002 10.307100000000005,11.063000000000002 C10.859499999999997,12.447000000000003 10.9636,13.861999999999995 10.643799999999999,14.962999999999994 C10.730699999999999,14.903999999999996 10.817099999999996,14.840000000000003 10.9024,14.770999999999987 C10.915899999999993,14.75800000000001 10.930000000000007,14.747000000000014 10.944500000000005,14.73599999999999 C11.613399999999999,14.181000000000012 12.219399999999993,13.336000000000013 12.611999999999995,12.352000000000004 zM18.128699999999995,14.509999999999991 C17.660799999999995,13.84899999999999 16.666300000000007,13.358000000000004 15.479699999999994,13.211000000000013 C15.445899999999995,13.241000000000014 15.4114,13.27000000000001 15.376599999999996,13.300000000000011 C14.546700000000001,13.99799999999999 13.539699999999996,14.39500000000001 12.574399999999997,14.412000000000006 C12.386499999999998,14.663999999999987 12.1862,14.897999999999996 11.976299999999995,15.109000000000009 C12.673699999999997,15.576999999999998 13.680300000000003,15.85499999999999 14.732600000000005,15.85499999999999 C16.2149,15.85499999999999 17.5599,15.312000000000012 18.128699999999995,14.509999999999991 zM14.314499999999995,18.12299999999999 C14.111599999999996,17.945999999999998 13.803899999999999,17.96799999999999 13.627099999999999,18.170999999999992 C13.319900000000004,18.525000000000006 11.864800000000002,19.022999999999996 9.591800000000006,19.022999999999996 C7.318799999999996,19.022999999999996 5.863699999999994,18.525000000000006 5.5565,18.170999999999992 C5.379800000000003,17.96799999999999 5.072100000000006,17.945999999999998 4.869200000000006,18.12299999999999 C4.666300000000007,18.300999999999988 4.645099999999999,18.60900000000001 4.821799999999996,18.812999999999988 C5.582899999999995,19.688999999999993 7.8670999999999935,20 9.591899999999995,20 C11.316699999999997,20 13.600800000000007,19.688999999999993 14.361900000000006,18.812999999999988 C14.538600000000002,18.60900000000001 14.517300000000006,18.300999999999988 14.314499999999995,18.12299999999999 zM3.1877000000000066,7.784999999999997 C3.4465000000000003,7.858999999999995 3.7156999999999982,7.706999999999994 3.7887000000000057,7.447999999999993 C4.516900000000007,4.855000000000004 6.9033000000000015,3.0450000000000017 9.591800000000006,3.0450000000000017 C12.2804,3.0450000000000017 14.666799999999995,4.855000000000004 15.394999999999996,7.447999999999993 C15.455600000000004,7.662999999999997 15.650999999999996,7.804000000000002 15.863699999999994,7.804000000000002 C15.907399999999996,7.804000000000002 15.951899999999995,7.798000000000002 15.995999999999995,7.784999999999997 C16.254999999999995,7.712000000000003 16.4058,7.441999999999993 16.332800000000006,7.183000000000007 C15.486800000000002,4.1710000000000065 12.714799999999997,2.067999999999998 9.591800000000006,2.067999999999998 C6.468900000000005,2.067999999999998 3.6968999999999994,4.1710000000000065 2.8508999999999958,7.183000000000007 C2.7779000000000025,7.441999999999993 2.9287000000000063,7.712000000000003 3.1877000000000066,7.784999999999997 zM9.591800000000006,18.358000000000004 C10.010400000000004,18.358000000000004 11.4148,18.312999999999988 11.914699999999996,17.736999999999995 C12.091300000000004,17.533999999999992 12.069999999999993,17.224999999999994 11.867099999999994,17.048000000000002 C11.665300000000002,16.872000000000014 11.3596,16.891999999999996 11.182599999999994,17.092000000000013 C11.0715,17.19399999999999 10.494799999999998,17.381 9.591800000000006,17.381 C8.688599999999994,17.381 8.111999999999995,17.19399999999999 8.000900000000001,17.092000000000013 C7.823800000000006,16.891999999999996 7.518299999999996,16.872000000000014 7.316400000000002,17.048000000000002 C7.113500000000002,17.224999999999994 7.0922999999999945,17.533999999999992 7.2690000000000055,17.736999999999995 C7.7690000000000055,18.312999999999988 9.1734,18.358000000000004 9.591800000000006,18.358000000000004 zM0.8185000000000002,5.850999999999999 L1.0751999999999953,5.998999999999995 C1.1518999999999977,6.043999999999997 1.2356999999999942,6.064999999999998 1.3185000000000002,6.064999999999998 C1.4868000000000023,6.064999999999998 1.6504000000000048,5.977000000000004 1.740700000000004,5.820999999999998 C1.875399999999999,5.587000000000003 1.7955999999999932,5.287999999999997 1.5626000000000033,5.153000000000006 L1.3059999999999974,5.004000000000005 C1.0732,4.8700000000000045 0.7750999999999948,4.948999999999998 0.640500000000003,5.183000000000007 C0.5058999999999969,5.417000000000002 0.5855999999999995,5.715999999999994 0.8185000000000002,5.850999999999999 z" fill="white" id="svg_2"/>
</g></g></svg>