<svg xmlns="http://www.w3.org/2000/svg" width="43" height="49" fill="none">


<g class="currentLayer" style=""><title>Layer 1</title><g filter="url(#filter0_d_1_572)" id="svg_1" class="">
<path d="M20.60275585937501,1.9256000000000029 V1.1970000000000027 C20.60275585937501,0.535899999999998 21.095755859375004,0 21.704755859375013,0 C22.313755859374993,0 22.806755859374988,0.535899999999998 22.806755859374988,1.1970000000000027 V1.9256000000000029 C22.806755859374988,2.5867999999999967 22.313755859374993,3.122700000000002 21.704755859375013,3.122700000000002 C21.095755859375004,3.122700000000002 20.60275585937501,2.5867000000000004 20.60275585937501,1.9256000000000029 zM9.941755859375007,5.668300000000002 C10.145755859374987,6.052599999999998 10.516755859374996,6.267399999999995 10.897755859374996,6.267399999999995 C11.084755859375008,6.267399999999995 11.273755859375001,6.215699999999998 11.447755859375008,6.106999999999999 C11.974755859374994,5.776600000000002 12.155755859375006,5.044600000000003 11.851755859375004,4.472000000000001 L11.515755859374991,3.841000000000001 C11.211755859374989,3.2683000000000035 10.537755859375011,3.0720000000000027 10.010755859374996,3.4022000000000006 C9.482755859375004,3.732599999999998 9.301755859374992,4.464700000000001 9.606755859375,5.037199999999999 L9.941755859375007,5.668300000000002 zM31.96175585937499,6.106999999999999 C32.135755859374996,6.2158000000000015 32.32475585937499,6.267499999999998 32.511755859375,6.267499999999998 C32.892755859375,6.267499999999998 33.26375585937501,6.0527000000000015 33.46775585937499,5.668700000000001 L33.802755859375,5.037800000000004 C34.107755859375004,4.465200000000003 33.92675585937499,3.7331000000000003 33.399755859375006,3.4025999999999996 C32.87275585937499,3.0722999999999985 32.19775585937501,3.2683999999999997 31.893755859375005,3.8408999999999978 L31.557755859374993,4.471800000000002 C31.25375585937499,5.044300000000007 31.434755859375002,5.776300000000006 31.96175585937499,6.106999999999999 zM40.42575585937499,14.858999999999995 C40.612755859375,14.858999999999995 40.802755859375,14.807299999999998 40.976755859375004,14.698400000000007 L41.55775585937499,14.334100000000007 C42.08475585937501,14.0034 42.264755859374986,13.271199999999993 41.96075585937501,12.698800000000006 C41.65675585937501,12.1263 40.981755859375,11.9302 40.45475585937501,12.260900000000007 L39.873755859374995,12.625200000000007 C39.34675585937501,12.9559 39.165755859375,13.687899999999999 39.470755859375004,14.260499999999993 C39.67475585937501,14.644400000000005 40.04475585937499,14.858999999999995 40.42575585937499,14.858999999999995 zM43.291755859375,36.08839999999999 C41.859755859375014,39.169 37.859755859375014,41.239000000000004 33.337755859374994,41.239000000000004 C30.237755859375,41.239000000000004 27.333755859375003,40.2679 25.35875585937501,38.605500000000006 C24.22775585937501,39.447100000000006 23.033755859374992,39.989000000000004 21.851755859375004,40.1546 C21.797755859375002,40.1622 21.743755859375,40.165000000000006 21.690755859375003,40.1644 C21.64675585937499,40.164 21.60275585937501,40.160799999999995 21.558755859374997,40.1546 C20.375755859375005,39.9889 19.181755859374988,39.447 18.050755859374988,38.605500000000006 C16.075755859374993,40.268 13.172755859375002,41.239000000000004 10.071755859375003,41.239000000000004 C5.549755859374997,41.239000000000004 1.5497558593749972,39.169 0.117755859374995,36.08839999999999 C-0.03924414062500148,35.749399999999994 -0.03924414062500148,35.349199999999996 0.117755859374995,35.010000000000005 C1.1737558593750066,32.73650000000001 3.5897558593750034,31.012500000000003 6.645755859375001,30.265199999999993 C5.059755859375002,27.8193 4.4807558593749945,24.929100000000005 5.198755859374998,22.456699999999998 C5.286755859375006,22.1541 5.481755859374999,21.901799999999994 5.740755859375,21.755300000000005 C7.552755859374997,20.730599999999995 9.849755859374994,20.656400000000005 12.085755859375013,21.507400000000004 C12.417755859375006,20.313199999999995 12.939755859374998,19.274100000000004 13.647755859374996,18.464100000000002 C13.889755859374986,18.186999999999998 14.239755859375009,18.0522 14.588755859374999,18.101 C15.166755859375002,18.182000000000002 15.74775585937499,18.352900000000005 16.322755859375008,18.604699999999994 C17.488755859375004,15.927999999999997 19.207755859375,13.931899999999999 21.244755859375005,12.917000000000002 C21.536755859375006,12.771500000000003 21.87275585937499,12.771500000000003 22.163755859374987,12.917000000000002 C24.19975585937499,13.931299999999993 25.91875585937501,15.926100000000005 27.085755859375013,18.601100000000002 C27.660755859375,18.351399999999998 28.24175585937499,18.182299999999998 28.820755859374998,18.101 C29.169755859374987,18.0522 29.51975585937501,18.186999999999998 29.761755859375,18.464100000000002 C30.469755859375,19.274100000000004 30.99175585937499,20.313100000000006 31.323755859375012,21.507099999999994 C33.559755859375,20.6563 35.856755859375,20.7307 37.667755859375006,21.7551 C37.927755859375,21.901700000000005 38.12275585937499,22.153999999999996 38.20975585937501,22.456500000000005 C38.928755859375,24.929000000000002 38.349755859374994,27.819000000000003 36.76375585937501,30.265 C39.81975585937499,31.012200000000007 42.23575585937499,32.7362 43.291755859375,35.009699999999995 C43.44875585937501,35.349199999999996 43.44875585937501,35.749399999999994 43.291755859375,36.08839999999999 zM29.94375585937499,32.692800000000005 C31.14075585937499,32.3699 32.32975585937501,31.704700000000003 33.377755859374986,30.7504 C35.517755859375,28.801100000000005 36.637755859375005,25.962999999999994 36.22275585937501,23.669200000000004 C34.927755859375,23.123099999999994 33.31275585937499,23.207800000000006 31.72175585937501,23.901300000000006 C31.873755859374995,26.136300000000006 31.502755859374986,28.6644 30.585755859375013,31.152600000000007 C30.39075585937499,31.681600000000003 30.175755859374988,32.195899999999995 29.94375585937499,32.692800000000005 zM18.255755859375,19.771 C19.52575585937501,20.752700000000004 20.709755859375008,22.111500000000007 21.702755859375003,23.736900000000006 C22.69975585937499,22.093999999999994 23.88275585937501,20.737399999999994 25.149755859375006,19.761399999999995 C24.300755859374988,17.769400000000005 23.085755859375013,16.211399999999998 21.704755859375013,15.350499999999997 C20.321755859375003,16.212900000000005 19.10475585937499,17.774500000000003 18.255755859375,19.771 zM10.03175585937501,30.750299999999996 C11.078755859375008,31.704700000000003 12.268755859375005,32.3702 13.465755859375008,32.693 C13.233755859375009,32.195800000000006 13.018755859375005,31.681700000000006 12.823755859375012,31.1524 C11.90675585937501,28.6644 11.535755859375001,26.1361 11.688755859374993,23.901300000000006 C10.096755859375008,23.207499999999996 8.481755859375,23.122799999999998 7.186755859374998,23.668899999999994 C6.771755859375006,25.9628 7.891755859374996,28.801000000000002 10.03175585937501,30.750299999999996 zM16.308755859374997,37.018100000000004 C15.833755859375003,36.4995 15.380755859375,35.9269 14.955755859374989,35.3083 C12.770755859374987,35.267799999999994 10.49175585937499,34.295500000000004 8.613755859375004,32.5843 C8.534755859374997,32.512299999999996 8.457755859374998,32.4397 8.380755859375,32.365899999999996 C5.695755859374998,32.72710000000001 3.445755859374998,33.928799999999995 2.3867558593750005,35.5489 C3.6737558593750066,37.5149 6.7177558593750035,38.844899999999996 10.071755859375003,38.844899999999996 C12.452755859375003,38.844899999999996 14.730755859374995,38.163 16.308755859374997,37.018100000000004 zM21.276755859374987,27.9927 C20.177755859374997,25.011300000000006 18.340755859375008,22.552599999999998 16.409755859374997,21.311700000000002 C16.356755859375,21.284000000000006 16.30575585937501,21.251999999999995 16.25775585937501,21.216300000000004 C15.800755859374988,20.938500000000005 15.339755859375003,20.729799999999997 14.88275585937501,20.5989 C14.425755859374988,21.308499999999995 14.119755859375005,22.216300000000004 13.96775585937499,23.2504 C13.963755859374999,23.3134 13.954755859375013,23.376400000000004 13.941755859375007,23.438999999999993 C13.686755859375012,25.436099999999996 13.990755859375014,27.875699999999995 14.87075585937501,30.263199999999998 C15.75775585937501,32.6726 17.127755859374986,34.7405 18.639755859374986,36.10039999999999 C18.675755859374988,36.128 18.709755859375008,36.158199999999994 18.74175585937499,36.191 C19.561755859375012,36.9076 20.419755859374987,37.415499999999994 21.26375585937501,37.6572 C22.618755859375,35.553700000000006 22.645755859374987,31.710099999999997 21.276755859374987,27.9927 zM28.538755859374987,30.263000000000005 C29.41875585937501,27.876499999999993 29.72175585937501,25.437600000000003 29.46775585937499,23.440799999999996 C29.454755859375013,23.3767 29.445755859374998,23.3121 29.441755859375007,23.247600000000006 C29.289755859374992,22.2145 28.98375585937501,21.307599999999994 28.526755859374987,20.5985 C28.076755859374998,20.727000000000004 27.621755859375014,20.930899999999994 27.170755859374992,21.202200000000005 C27.11075585937499,21.248900000000006 27.045755859374992,21.289599999999993 26.975755859375,21.323300000000003 C25.476755859375004,22.2911 24.029755859375,23.995199999999997 22.939755859374998,26.141099999999994 C23.07475585937499,26.455799999999996 23.202755859375003,26.776700000000005 23.322755859375008,27.103499999999997 C24.573755859375012,30.495900000000006 24.808755859374997,33.9627 24.084755859375008,36.659499999999994 C24.28175585937501,36.5145 24.47775585937501,36.356899999999996 24.670755859374992,36.188 C24.700755859374993,36.1576 24.732755859375004,36.129400000000004 24.76575585937499,36.10339999999999 C26.278755859374996,34.7435 27.65075585937501,32.6742 28.538755859374987,30.263000000000005 zM41.022755859374996,35.5489 C39.963755859375,33.928799999999995 37.713755859375,32.7273 35.02775585937499,32.365899999999996 C34.951755859375,32.4396 34.873755859374995,32.5125 34.79475585937499,32.5843 C32.916755859375,34.295199999999994 30.637755859375005,35.2675 28.453755859375008,35.3082 C28.028755859374996,35.9269 27.575755859374993,36.499399999999994 27.100755859375,37.018100000000004 C28.678755859375002,38.1627 30.956755859374994,38.844800000000006 33.337755859374994,38.844800000000006 C36.69175585937501,38.844899999999996 39.73575585937499,37.5149 41.022755859374996,35.5489 zM32.391755859374996,44.402 C31.932755859374993,43.968 31.23575585937499,44.019999999999996 30.835755859375013,44.519000000000005 C30.14075585937499,45.385000000000005 26.847755859375013,46.605999999999995 21.704755859375013,46.605999999999995 C16.560755859375007,46.605999999999995 13.268755859375005,45.385000000000005 12.573755859375012,44.519000000000005 C12.173755859375007,44.019999999999996 11.476755859375004,43.968 11.017755859375,44.402 C10.558755859374997,44.837 10.510755859374996,45.593 10.910755859375001,46.090999999999994 C12.63275585937501,48.238 17.801755859374992,49 21.704755859375013,49 C25.607755859375004,49 30.776755859374987,48.238 32.498755859374995,46.090999999999994 C32.898755859375,45.593 32.850755859375,44.837 32.391755859374996,44.402 zM7.212755859374994,19.074399999999997 C7.798755859375007,19.253600000000006 8.407755859374987,18.883200000000002 8.572755859375008,18.246899999999997 C10.220755859375004,11.895700000000005 15.62075585937501,7.459900000000005 21.704755859375013,7.459900000000005 C27.788755859374987,7.459900000000005 33.18875585937499,11.895700000000005 34.83675585937499,18.246899999999997 C34.97375585937499,18.7748 35.415755859375,19.119699999999995 35.89675585937499,19.119699999999995 C35.99575585937501,19.119699999999995 36.09675585937501,19.105000000000004 36.196755859375,19.074399999999997 C36.78275585937499,18.895200000000003 37.123755859374995,18.233999999999995 36.958755859375,17.597700000000003 C35.04375585937501,10.219099999999997 28.77175585937499,5.065799999999996 21.704755859375013,5.065799999999996 C14.637755859375005,5.065799999999996 8.364755859375009,10.2192 6.450755859374993,17.597700000000003 C6.285755859375001,18.233999999999995 6.626755859374995,18.895200000000003 7.212755859374994,19.074399999999997 zM21.704755859375013,44.977000000000004 C22.651755859374987,44.977000000000004 25.829755859375013,44.867000000000004 26.960755859375013,43.456 C27.36075585937499,42.958 27.312755859374988,42.202 26.853755859375013,41.766999999999996 C26.39675585937499,41.336 25.704755859375013,41.385000000000005 25.304755859375007,41.876999999999995 C25.052755859374997,42.125 23.74775585937499,42.583 21.704755859375013,42.583 C19.660755859375,42.583 18.355755859374995,42.125 18.10475585937499,41.876000000000005 C17.703755859375008,41.385000000000005 17.012755859375005,41.336 16.55575585937501,41.768 C16.09675585937501,42.202 16.048755859375007,42.958 16.448755859375012,43.456 C17.579755859375013,44.867000000000004 20.75775585937501,44.977000000000004 21.704755859375013,44.977000000000004 zM1.8517558593750039,14.333799999999997 L2.432755859375007,14.6982 C2.6067558593749993,14.807199999999995 2.7957558593750065,14.858999999999995 2.9837558593749947,14.858999999999995 C3.3637558593750043,14.858999999999995 3.7347558593749994,14.644499999999994 3.938755859374993,14.260599999999997 C4.243755859375,13.688199999999995 4.062755859375002,12.956000000000003 3.5357558593750014,12.625399999999999 L2.9547558593749983,12.260900000000007 C2.428755859375002,11.930400000000006 1.7537558593750049,12.125900000000001 1.448755859374998,12.698499999999996 C1.144755859374996,13.270799999999994 1.3247558593750028,14.003 1.8517558593750039,14.333799999999997 z" fill="white" id="svg_2"/>
</g></g></svg>