<svg width="13" height="13" viewBox="0 0 13 13" fill="none" xmlns="http://www.w3.org/2000/svg">
<path d="M6.00374 3.04959e-05C2.6931 3.05078e-05 4.57666e-05 2.91599 4.57547e-05 6.50003C4.57427e-05 10.0841 2.6931 13 6.00374 13C9.31438 13 12.0074 10.0841 12.0074 6.50003C12.0074 2.91599 9.31438 3.04839e-05 6.00374 3.04959e-05ZM8.39046 6.72776L4.88832 9.16526C4.84728 9.19408 4.79988 9.20837 4.75298 9.20837C4.71194 9.20837 4.6704 9.19725 4.63328 9.17531C4.55265 9.12771 4.50281 9.03671 4.50281 8.93753L4.50281 4.06253C4.50281 3.96335 4.55265 3.87235 4.63328 3.82475C4.71243 3.77767 4.81161 3.78057 4.88832 3.8348L8.39046 6.2723C8.4618 6.32202 8.50528 6.40799 8.50528 6.50003C8.50528 6.59207 8.4618 6.67802 8.39046 6.72776Z" fill="black"/>
</svg>
