<svg width="27" height="25" viewBox="0 0 27 25" fill="none" xmlns="http://www.w3.org/2000/svg">
<path d="M26.2463 8.15965C25.4559 6.53849 24.0982 5.6308 22.7848 4.75195C21.8059 4.09618 20.8828 3.47695 20.229 2.59042L20.1078 2.42695C19.7232 1.90965 19.2848 1.32311 19.2175 0.8308C19.2117 0.790415 19.1886 0.757723 19.1771 0.717338C19.1598 0.650031 19.1405 0.586569 19.1098 0.52503C19.0867 0.475031 19.054 0.4308 19.0194 0.384646C18.979 0.332723 18.9405 0.282723 18.8905 0.240415C18.8425 0.198107 18.7905 0.169261 18.7367 0.136569C18.6867 0.107723 18.6405 0.0807998 18.5848 0.061569C18.5175 0.036569 18.4482 0.0269536 18.3752 0.0192613C18.3386 0.0173382 18.3078 3.05176e-05 18.2694 3.05176e-05C18.2463 3.05176e-05 18.2271 0.011569 18.2059 0.0134921C18.1828 0.0154152 18.1617 0.00579974 18.1386 0.00964589C18.0963 0.0154151 18.0636 0.0384921 18.0232 0.0500306C17.9578 0.0673383 17.8963 0.0846459 17.8386 0.115415C17.7848 0.142338 17.7386 0.176954 17.6925 0.215415C17.6425 0.253877 17.5944 0.292338 17.554 0.340415C17.5136 0.386569 17.4848 0.436569 17.454 0.488492C17.4232 0.542338 17.3944 0.594261 17.3732 0.653877C17.3521 0.713492 17.3444 0.775031 17.3367 0.840415C17.3271 0.878877 17.3078 0.917338 17.3078 0.961569V18.0962C16.5021 17.6077 15.5098 17.3077 14.4232 17.3077C11.7713 17.3077 9.61554 19.0327 9.61554 21.1539C9.61554 23.275 11.7713 25 14.4232 25C17.0752 25 19.2309 23.275 19.2309 21.1539V9.94619C20.6752 10.4981 23.0386 11.9039 23.6886 15.1866C23.5675 15.3654 23.4521 15.5596 23.3175 15.7116C22.9655 16.1096 23.0059 16.7173 23.404 17.0673C23.5867 17.2289 23.8136 17.3077 24.0386 17.3077C24.3059 17.3077 24.5694 17.1962 24.7598 16.9808C25.0155 16.6904 25.2444 16.3462 25.4636 15.9923C25.4886 15.9616 25.5078 15.9327 25.529 15.9C26.3059 14.6 26.8213 12.9558 26.9194 11.3308C26.9828 10.2866 26.7502 9.19042 26.2463 8.15965ZM14.4232 23.077C12.8598 23.077 11.5386 22.1962 11.5386 21.1539C11.5386 20.1116 12.8598 19.2308 14.4232 19.2308C15.9867 19.2308 17.3078 20.1116 17.3078 21.1539C17.3078 22.1962 15.9867 23.077 14.4232 23.077ZM25.0021 11.2096C24.9752 11.6596 24.9059 12.1096 24.8078 12.55C23.4559 9.83657 21.004 8.42311 19.2309 7.90003V4.36734C19.9848 5.17118 20.8598 5.77311 21.7175 6.34618C22.8694 7.11734 23.9578 7.84618 24.5213 9.00195C24.8752 9.72311 25.0444 10.5096 25.0021 11.2096Z" fill="white"/>
<path d="M12.5001 3.05176e-05H0.961599C0.43083 3.05176e-05 6.10352e-05 0.4308 6.10352e-05 0.961569C6.10352e-05 1.49234 0.43083 1.92311 0.961599 1.92311H12.5001C13.0308 1.92311 13.4616 1.49234 13.4616 0.961569C13.4616 0.4308 13.0308 3.05176e-05 12.5001 3.05176e-05Z" fill="white"/>
<path d="M12.5001 5.76938H0.961599C0.43083 5.76938 6.10352e-05 6.20015 6.10352e-05 6.73092C6.10352e-05 7.26169 0.43083 7.69246 0.961599 7.69246H12.5001C13.0308 7.69246 13.4616 7.26169 13.4616 6.73092C13.4616 6.20015 13.0308 5.76938 12.5001 5.76938Z" fill="white"/>
<path d="M6.73083 11.5387H0.961599C0.43083 11.5387 6.10352e-05 11.9695 6.10352e-05 12.5003C6.10352e-05 13.031 0.43083 13.4618 0.961599 13.4618H6.73083C7.2616 13.4618 7.69237 13.031 7.69237 12.5003C7.69237 11.9695 7.2616 11.5387 6.73083 11.5387Z" fill="white"/>
<path d="M6.73083 17.3078H0.961599C0.43083 17.3078 6.10352e-05 17.7385 6.10352e-05 18.2693C6.10352e-05 18.8001 0.43083 19.2308 0.961599 19.2308H6.73083C7.2616 19.2308 7.69237 18.8001 7.69237 18.2693C7.69237 17.7385 7.2616 17.3078 6.73083 17.3078Z" fill="white"/>
</svg>
