<svg width="18" height="17" viewBox="0 0 18 17" fill="none" xmlns="http://www.w3.org/2000/svg">
<path opacity="0.75" d="M15.7101 10.2941C15.5218 10.1058 15.2664 10 15.0001 10C14.7338 10 14.4784 10.1058 14.2901 10.2941C14.1018 10.4824 13.996 10.7378 13.996 11.0041C13.996 11.2704 14.1018 11.5258 14.2901 11.7141L14.5801 12.0041H13.0001C11.9392 12.0041 10.9218 11.5827 10.1716 10.8326C9.42149 10.0824 9.00006 9.06499 9.00006 8.00412C9.00006 6.94326 9.42149 5.92584 10.1716 5.17569C10.9218 4.42555 11.9392 4.00412 13.0001 4.00412H14.5901L14.2901 4.29412C14.1963 4.38709 14.1219 4.49769 14.0712 4.61955C14.0204 4.7414 13.9943 4.87211 13.9943 5.00412C13.9943 5.13613 14.0204 5.26684 14.0712 5.3887C14.1219 5.51056 14.1963 5.62116 14.2901 5.71412C14.3835 5.8068 14.4943 5.88013 14.6162 5.92989C14.738 5.97966 14.8685 6.00488 15.0001 6.00412C15.1317 6.00488 15.2621 5.97966 15.384 5.92989C15.5058 5.88013 15.6166 5.8068 15.7101 5.71412L17.7101 3.71412C17.8027 3.62068 17.8761 3.50987 17.9258 3.38803C17.9756 3.26619 18.0008 3.13573 18.0001 3.00412C18.0008 2.87252 17.9756 2.74205 17.9258 2.62022C17.8761 2.49838 17.8027 2.38756 17.7101 2.29412L15.7101 0.294122C15.6168 0.200884 15.5061 0.126923 15.3843 0.0764627C15.2625 0.0260024 15.1319 3.05176e-05 15.0001 3.05176e-05C14.7338 3.05176e-05 14.4784 0.105819 14.2901 0.294122C14.1018 0.482426 13.996 0.737821 13.996 1.00412C13.996 1.27042 14.1018 1.52582 14.2901 1.71412L14.5801 2.00412H13.0001C12.0093 2.00485 11.0342 2.25089 10.1617 2.72028C9.28927 3.18967 8.54661 3.86779 8.00006 4.69412C7.45351 3.86779 6.71085 3.18967 5.83838 2.72028C4.96591 2.25089 3.99078 2.00485 3.00006 2.00412H1.00006C0.734845 2.00412 0.480491 2.10948 0.292954 2.29702C0.105418 2.48455 6.10352e-05 2.73891 6.10352e-05 3.00412C6.10352e-05 3.26934 0.105418 3.52369 0.292954 3.71123C0.480491 3.89877 0.734845 4.00412 1.00006 4.00412H3.00006C4.06093 4.00412 5.07834 4.42555 5.82849 5.17569C6.57863 5.92584 7.00006 6.94326 7.00006 8.00412C7.00006 9.06499 6.57863 10.0824 5.82849 10.8326C5.07834 11.5827 4.06093 12.0041 3.00006 12.0041H1.00006C0.734845 12.0041 0.480491 12.1095 0.292954 12.297C0.105418 12.4846 6.10352e-05 12.7389 6.10352e-05 13.0041C6.10352e-05 13.2693 0.105418 13.5237 0.292954 13.7112C0.480491 13.8988 0.734845 14.0041 1.00006 14.0041H3.00006C3.99078 14.0034 4.96591 13.7574 5.83838 13.288C6.71085 12.8186 7.45351 12.1405 8.00006 11.3141C8.54661 12.1405 9.28927 12.8186 10.1617 13.288C11.0342 13.7574 12.0093 14.0034 13.0001 14.0041H14.5901L14.2901 14.2941C14.1963 14.3871 14.1219 14.4977 14.0712 14.6195C14.0204 14.7414 13.9943 14.8721 13.9943 15.0041C13.9943 15.1361 14.0204 15.2668 14.0712 15.3887C14.1219 15.5106 14.1963 15.6212 14.2901 15.7141C14.3835 15.8068 14.4943 15.8801 14.6162 15.9299C14.738 15.9797 14.8685 16.0049 15.0001 16.0041C15.1317 16.0049 15.2621 15.9797 15.384 15.9299C15.5058 15.8801 15.6166 15.8068 15.7101 15.7141L17.7101 13.7141C17.8027 13.6207 17.8761 13.5099 17.9258 13.388C17.9756 13.2662 18.0008 13.1357 18.0001 13.0041C18.0008 12.8725 17.9756 12.7421 17.9258 12.6202C17.8761 12.4984 17.8027 12.3876 17.7101 12.2941L15.7101 10.2941Z" fill="white"/>
</svg>
