<svg width="22" height="27" viewBox="0 0 22 27" fill="none" xmlns="http://www.w3.org/2000/svg">
<path d="M10.8566 13.428C14.2885 13.428 17.0706 10.6459 17.0706 7.21403C17.0706 3.78213 14.2885 1.00003 10.8566 1.00003C7.42474 1.00003 4.64264 3.78213 4.64264 7.21403C4.64264 10.6459 7.42474 13.428 10.8566 13.428Z" stroke="white" stroke-width="1.5" stroke-linecap="round" stroke-linejoin="round"/>
<path fill-rule="evenodd" clip-rule="evenodd" d="M1.00008 22.0706C0.998433 21.6338 1.09613 21.2023 1.28581 20.8088C1.88102 19.6183 3.55953 18.9874 4.95233 18.7017C5.95682 18.4873 6.97518 18.3441 7.99983 18.2731C9.89689 18.1065 11.8049 18.1065 13.702 18.2731C14.7265 18.345 15.7449 18.4881 16.7495 18.7017C18.1423 18.9874 19.8208 19.5588 20.416 20.8088C20.7975 21.6109 20.7975 22.5422 20.416 23.3444C19.8208 24.5943 18.1423 25.1657 16.7495 25.4395C15.7462 25.6628 14.7274 25.81 13.702 25.88C12.1579 26.0109 10.6067 26.0347 9.05931 25.9514C8.70218 25.9514 8.35696 25.9514 7.99983 25.88C6.9782 25.8109 5.96337 25.6636 4.96423 25.4395C3.55953 25.1657 1.89292 24.5943 1.28581 23.3444C1.0971 22.9463 0.999499 22.5112 1.00008 22.0706Z" stroke="white" stroke-width="1.5" stroke-linecap="round" stroke-linejoin="round"/>
</svg>
